<svg width="0" height="0" class="hidden">
  <symbol xmlns="http://www.w3.org/2000/svg" viewBox="0 0 477.849 477.849" id="alarm-clock">
    <path d="M374.099 385.518c71.682-74.715 69.224-193.394-5.492-265.076a187.479 187.479 0 00-130.052-52.193c-103.54-.144-187.593 83.676-187.736 187.217a187.482 187.482 0 0052.193 130.052l-48.777 65.024c-5.655 7.541-4.127 18.238 3.413 23.893s18.238 4.127 23.893-3.413l47.275-63.044c65.4 47.651 154.078 47.651 219.477 0l47.275 63.044c5.655 7.541 16.353 9.069 23.893 3.413 7.541-5.655 9.069-16.353 3.413-23.893l-48.775-65.024zm-135.543 24.064c-84.792-.094-153.506-68.808-153.6-153.6 0-84.831 68.769-153.6 153.6-153.6s153.6 68.769 153.6 153.6-68.769 153.6-153.6 153.6zm-93.27-384.598C111.544-7.918 57.519-7.237 24.616 26.505c-32.314 33.139-32.318 85.997-.008 119.141 6.665 6.663 17.468 6.663 24.132 0l96.546-96.529c6.663-6.665 6.663-17.468 0-24.133zM38.739 107.382c-12.186-25.516-1.38-56.08 24.136-68.267a51.2 51.2 0 0144.131 0l-68.267 68.267zm413.747-82.398c-33.323-33.313-87.339-33.313-120.661 0-6.663 6.665-6.663 17.468 0 24.132l96.529 96.529c6.665 6.663 17.468 6.663 24.132 0 33.313-33.322 33.313-87.338 0-120.661zm-14.08 82.449l-.034-.034-68.267-68.267c19.632-9.021 42.79-5.041 58.283 10.018 15.356 15.341 19.371 38.696 10.018 58.283z"></path>
    <path d="M238.556 136.515c-9.426 0-17.067 7.641-17.067 17.067v96.717l-47.787 63.71c-5.655 7.541-4.127 18.238 3.413 23.893s18.238 4.127 23.893-3.413l51.2-68.267a17.063 17.063 0 003.413-10.24v-102.4c.001-9.426-7.64-17.067-17.065-17.067z"></path>
  </symbol>
</svg>